<?xml version="1.0" encoding="utf-8"?>
<!-- Generator: Adobe Illustrator 24.0.0, SVG Export Plug-In . SVG Version: 6.00 Build 0)  -->
<svg version="1.1" id="Layer_1" xmlns="http://www.w3.org/2000/svg" xmlns:xlink="http://www.w3.org/1999/xlink" x="0px" y="0px"
	 viewBox="0 0 1038 299" style="enable-background:new 0 0 1038 299;" xml:space="preserve">
<style type="text/css">
	.st0{fill:#0068FF;}
	.st1{fill:#AACDFF;}
	.st2{fill:#418EFF;}
	.st3{fill:#87BF69;}
	.st4{fill:#3F8DFF;}
	.st5{fill:#95C0FF;}
	.st6{fill:#5FAA37;}
	.st7{fill:#87B9FF;}
	.st8{fill:#73B450;}
	.st9{fill:#1C1C1B;}
	.st10{fill:#232322;}
	.st11{fill:#2D2D2C;}
	.st12{fill:#4B3C3C;}
	.st13{fill:#483C3C;}
	.st14{fill:#523D3D;}
	.st15{fill:#4F3C3C;}
	.st16{fill:#4F4141;}
	.st17{fill:#322727;}
	.st18{fill:#EB6A71;}
	.st19{fill:#422A2A;}
</style>
<g>
	<g>
		<path class="st0" d="M355.5,95.6c4,2.9,7.9,5.9,12,8.7c9.2,6.3,18.9,11.7,29,16.4c6.7,3.1,13.5,5.9,20.5,8.2
			c9.3,3.1,18.8,5.6,28.5,7.4c6.6,1.2,13.2,2.1,19.9,2.7c3.4,0.3,6.9,0.5,10.3,0.6c3.8,0.2,7.6,0.1,11.4,0.2
			c6.7,0.1,13.4-0.2,20.1-0.7c14.5-1.2,28.6-4.1,42.5-8.3c11.9-3.6,23.4-8.3,34.4-14c14-7.2,27-15.9,38.9-26.1
			c3.4-2.9,6.7-5.9,9.9-9.1c0.4-0.4,0.7-0.8,1.2-1.3c-2-1.4-4.1-2.3-6.1-3.5c-2.6-1.5-5.3-3-8-4.4c-1.2-0.6-1.8-1.6-1.8-2.9
			c0-2,1.3-3.4,3.3-3.3c1.5,0.1,3,0.3,4.4,0.5c5.9,0.9,11.8,1.8,17.6,2.7c1,0.2,1.7-0.1,2.4-1c5.4-7.2,10.7-14.5,16-21.8
			c1.1-1.6,1.1-1.6-0.4-2.9c-2-1.8-4-3.7-5.9-5.6c-0.5-0.5-1.1-0.8-1.7-1.1c-9.8-4.5-19.5-9-29.3-13.6c-1.5-0.7-2.9-1.4-4.5-2.1
			c0.6-1.3,1.9-1.9,2.5-2.9c1.3-2,2.9-2,5-1.6c7.2,1.3,14.4,2.3,21.6,3.4c0.9,0.2,1.9,0.2,2.8,0.5c1.4,0.5,2.3-0.2,3.1-1.2
			c0.8-0.9,1.6-1.8,2.5-2.7c1-0.9,2.4-1,3.3-0.2c0.9,0.8,1,2.1,0.1,3.3c-0.4,0.5-0.9,1-1.3,1.8c1.9,0.6,3.8,0.8,5.7,1
			c0.8,0.1,1.2-0.6,1.6-1.1c0.9-1.2,2-2.2,3.1-3.3c1.2-1.2,2.3-1.2,3.4-0.2c0.9,0.8,0.9,2.3-0.1,3.4c-0.6,0.6-1.3,1.2-1.5,2.2
			c3.5,0.6,6.8,1.1,10.2,1.7c0.8,0.1,1.4,0,2-0.6c4.1-4,8.3-8,12.4-12.1c1.8-1.8,3.8-3.3,6-4.4c2.2-1.1,4.4-2.1,6.6-3.2
			c0.2-0.2,0.6-0.1,0.8-0.4c0.8,0,1.6,0,2.5,0c0.5,1.3,0.5,2.5,0.1,3.8c-1.2,3.5-2.6,7-4.7,10.1c-1.4,2.1-3.3,4-4.9,5.9
			c-2.8,3.3-5.6,6.6-8.5,9.9c-0.4,0.5-0.8,0.8-0.7,1.6c0.9,3.8,1.7,7.6,2.6,11.8c1-1,1.8-1.8,2.6-2.6c1.5-1.3,3.5-0.6,3.9,1.3
			c0.2,0.8-0.2,1.4-0.7,2c-1.1,1.2-2.2,2.4-3.4,3.5c-0.9,0.9-1.3,1.8-0.9,3.1c0.4,1.4,0.7,2.9,1,4.5c1-0.5,1.5-1.3,2.2-1.9
			c1.1-0.9,2.3-1,3.3-0.1c0.8,0.8,0.9,2.3,0,3.3c-1.1,1.2-2.2,2.4-3.4,3.5c-0.7,0.6-0.8,1.2-0.6,2.1c1.8,8.1,3.5,16.1,5.3,24.2
			c0.4,1.9,0.4,3.4-1.3,4.6c-1.1,0.7-2,1.5-3.1,2.4c-0.9-1.7-2.1-3.8-3.2-5.9c-4.8-9-9.6-17.9-14.4-26.9c-0.9-1.7-2.6-2.7-3.9-4.1
			c-1.1-1.1-2.3-2.1-3.4-3.2c-0.7-0.7-1.2-0.8-2-0.1c-5.5,4.4-11,8.8-16.3,13.4c-1.5,1.3-3,2.7-4.7,3.9c-1.2,0.9-1.4,1.8-1.1,3.2
			c1.5,6.7,2.8,13.5,4.2,20.3c0.4,2.1-0.1,3.6-1.7,4.3c-1.7,0.8-3.3,0.3-4.4-1.4c-1.8-2.7-3.5-5.5-5.2-8.3c-1-1.7-2.1-3.3-3.2-5.1
			c-0.8,0.3-1.4,0.9-2,1.4c-8.3,8-17.5,15-27,21.5c-5.9,4-12,7.6-18.3,11c-11.3,6-23,10.9-35.1,14.9c-10.3,3.3-20.7,5.8-31.3,7.6
			c-6.9,1.1-13.9,1.9-20.9,2.5c-7.8,0.8-15.5,0.9-23.3,0.6c-18.6-0.6-36.7-4-54.4-9.5c-19.9-6.2-38.4-15.1-55.6-26.9
			c-6.6-4.6-13-9.4-19-14.9C355,95.6,355.1,95.4,355.5,95.6z"/>
		<path class="st0" d="M4.6,189.3c0.8,0,1.6,0.1,2.4,0.1c20.3,0,40.6,0,60.9,0c0.5,0,1,0.1,1.4,0c1.2-0.1,1.4,0.4,1.3,1.4
			c0,2.9,0,5.8,0,8.8c0,1.5,0,1.5-1.6,1.5c-7.3,0-14.5,0-21.8,0c-3.1,0-2.6-0.4-2.6,2.7c0,28.2,0,56.3,0,84.5c0,0.4,0,0.8,0,1.2
			c0,2.2,0,2-2,2c-3.4,0-6.8,0-10.2,0c-1,0-1.5-0.2-1.4-1.4c0-0.5,0-1,0-1.4c0-28.3,0-56.6,0-84.9c0-0.5,0-1,0-1.4
			c0.1-1.1-0.3-1.4-1.4-1.4c-8.4,0-16.7,0.1-25,0.1C4.6,197.2,4.6,193.2,4.6,189.3z"/>
		<path class="st1" d="M1034,282.2l-0.2,0l-0.2,0c-1.1-1.1-0.7-2.4-0.7-3.7c0-26,0-52.1,0-78.1c0-2.8,0-5.6,0-8.3
			c0-0.9-0.1-1.9,0.6-2.7c0.2,0,0.3-0.1,0.5-0.1C1034,220.2,1034,251.2,1034,282.2z"/>
		<path class="st2" d="M779.7,293.6c-3.4,0-6.8,0-10.2,0c-0.1-0.3-0.1-0.5,0.2-0.6c3.3-0.6,6.5-0.6,9.8,0
			C779.8,293.1,779.8,293.3,779.7,293.6z"/>
		<path class="st3" d="M537.7,293.6c-3.3,0-6.5,0-9.8,0c-0.1-0.3-0.1-0.5,0.2-0.6c3.1-0.6,6.3-0.6,9.4,0
			C537.7,293.1,537.8,293.3,537.7,293.6z"/>
		<path class="st4" d="M895.8,293.6c-3.3,0-6.5,0-9.8,0c-0.1-0.3-0.1-0.5,0.2-0.6c3.1-0.6,6.3-0.6,9.4,0
			C895.9,293.1,896,293.3,895.8,293.6z"/>
		<path class="st5" d="M710,4.7c-0.2,0.4-0.5,0.4-0.8,0.4c0-0.1,0-0.2,0-0.4C709.5,4.7,709.8,4.7,710,4.7z"/>
		<path class="st0" d="M620.8,206c-0.9,7.4-1.9,14.9-2.8,22.3c-0.6,5-1.2,10.1-1.8,15.1c-0.9,7.3-1.8,14.6-2.7,21.9
			c-0.8,6.3-1.5,12.6-2.2,18.9c-0.2,2-0.5,4-0.7,6c-0.1,0.8-0.3,1.2-1.3,1.2c-3.7,0-7.5,0-11.2,0c-1,0-1.1-0.4-1-1.3
			c0.3-2.6,0.6-5.2,0.9-7.9c0.5-4.2,1-8.3,1.5-12.5c0.8-6.2,1.5-12.3,2.3-18.5c0.6-4.9,1.1-9.8,1.7-14.7c0.8-6.3,1.6-12.6,2.3-18.9
			c0.6-5,1.2-9.9,1.7-14.9c0.4-3.3,0.8-6.6,2.6-9.5c2.1-3.5,5.2-5.2,9.3-5.3c3.5-0.1,6.6,0.6,9.1,3.1c1.9,1.8,3.2,4.1,4,6.6
			c2,6.7,4,13.5,5.9,20.3c4.8,16.9,9.6,33.9,14.4,50.8c0.1,0.5,0.3,0.9,0.7,1.3c1.5-5.1,3.1-10.3,4.6-15.4
			c5.3-17.9,10.7-35.8,16-53.7c0.9-3.1,2.3-6.1,4.3-8.7c4.4-5.6,13.5-5.2,17.1-2c1.4,1.3,2.3,2.8,3,4.5c1,2.6,1.2,5.3,1.5,8
			c1,9.3,2,18.5,3,27.8c0.9,8.5,1.9,16.9,2.8,25.4c1.1,9.8,2.2,19.6,3.3,29.4c0.2,1.6,0.4,3.2,0.7,4.8c0.1,0.8-0.2,1.3-1.1,1.2
			c-3.7,0-7.5,0-11.2,0c-0.9,0-1.3-0.3-1.4-1.3c-0.7-6.4-1.4-12.8-2.2-19.1c-0.9-7.5-1.8-14.9-2.7-22.3c-0.6-5-1.1-10.1-1.7-15.1
			c-0.8-6.6-1.6-13.3-2.4-19.9c-0.2-1.9-0.4-3.8-0.6-5.6c-0.1-0.8-0.2-1.5-0.6-2.5c-0.9,3-1.7,5.6-2.5,8.4
			c-6.1,20.4-12.1,40.9-18.2,61.3c-0.9,3-1.7,6.1-2.7,9.1c-0.9,2.6-2,5.2-4.5,6.8c-3,2-7.5,1.7-10.2-0.8c-2-1.9-3.3-4.3-4.1-6.9
			c-2.2-7.2-4.3-14.4-6.4-21.6c-5.3-18.3-10.6-36.7-15.9-55c-0.1-0.3-0.1-0.5-0.2-0.8c-0.2-0.3-0.5-0.5-0.5-1
			C620.9,205.4,621.1,205.7,620.8,206z"/>
		<path class="st6" d="M357.1,48.7c1.1,0.3,1.7,1.3,2.5,2c9.3,8.1,19.4,15.1,30.1,21c10.2,5.7,20.9,10.3,32,13.9
			c11,3.6,22.2,6.2,33.6,7.7c5.6,0.8,11.3,1.3,17,1.6c6.6,0.4,13.1,0.5,19.7,0.2c5.5-0.2,10.9-0.7,16.4-1.4c6.5-0.8,13-1.9,19.4-3.3
			c12.7-2.8,24.9-6.9,36.8-12.3c9.2-4.1,17.9-9,26.3-14.6c6.6-4.5,12.9-9.4,18.9-14.8c0.4-0.1,0.6,0,0.4,0.4
			c-4.9,8.3-10.7,16-17.2,23.1c-6.8,7.6-14.4,14.4-22.6,20.4c-9.2,6.8-19.1,12.3-29.7,16.8c-9.4,4-19.1,6.9-29.1,8.8
			c-6,1.2-12.1,1.9-18.3,2.3c-5.8,0.4-11.5,0.5-17.3,0.2c-7.6-0.4-15.1-1.3-22.5-2.9c-10.7-2.2-21.1-5.6-31-10.1
			c-13.6-6.2-26-14.3-37.1-24.2c-10.2-9.1-19-19.5-26.4-31c-0.8-1.2-1.6-2.3-2.1-3.7L357.1,48.7z"/>
		<path class="st0" d="M1033.5,189.4c0,0.9,0.1,1.8,0.1,2.6c0,29.2,0,58.4,0,87.6c0,0.9,0.1,1.8,0.1,2.6c-0.2,3-1,5.7-3.2,7.9
			c-1.5,1.5-3.4,2.1-5.5,2.3c-5.7,0.6-9.6-2.1-12.7-6.5c-1.9-2.7-3.1-5.7-4.5-8.6c-2.5-5.2-5-10.4-7.4-15.6
			c-4.7-9.9-9.4-19.8-14.1-29.7c-3.6-7.5-7.2-15-10.8-22.5c0-0.1-0.2-0.2-0.4-0.4c-0.3,0.8-0.2,1.5-0.2,2.2c0,25.9,0,51.9,0,77.8
			c0,2.8,0.3,2.5-2.5,2.5c-3.3,0-6.5,0-9.8,0c-1.4,0-1.4,0-1.5-1.5c0-0.3,0-0.7,0-1c0-29.1,0-58.3,0-87.4c0-2.7,0.3-5.4,1.3-8
			c1.3-3.4,4-5.1,7.4-5.5c5.4-0.6,9.6,1.6,12.9,5.8c1.6,2.1,2.8,4.5,4,6.9c5.1,10.8,10.2,21.6,15.3,32.4c3.4,7.1,6.8,14.2,10.1,21.3
			c2.1,4.4,4.2,8.8,6.2,13.2c0.4,1,0.9,1.9,1.7,2.8c0-0.7,0.1-1.4,0.1-2.1c0-25.5,0-51,0-76.6c0-2.8-0.3-2.5,2.5-2.5
			C1026.3,189.3,1029.9,189.4,1033.5,189.4z"/>
		<path class="st0" d="M172.9,255.7c0-10.5-0.1-20.9,0-31.4c0.1-6.7,1.3-13.2,4.4-19.2c4.9-9.5,12.6-15.5,23.1-17.5
			c7.7-1.5,15.4-1.1,22.7,1.9c7.9,3.3,13.5,9,17,16.7c2.5,5.6,3.5,11.6,3.7,17.8c0.6,21.7,0.1,43.4,0.3,65.1c0,0.4,0,0.8,0,1.2
			c0,0.8-0.3,1.1-1.1,1.1c-3.9,0-7.9,0-11.8,0c-0.7,0-1-0.3-1-1c0-0.5,0-1.1,0-1.6c0-12.9,0-25.8,0-38.7c0-0.4,0-0.8,0-1.2
			c0-1.8,0-1.8-1.8-1.8c-11.6,0-23.1,0-34.6,0c-2.6,0-2.3,0.3-2.3-2.3c0-2.4,0-4.9,0-7.3c0-2.1-0.2-1.9,2-1.9c11.3,0,22.7,0,34,0
			c3.1,0,2.6,0.4,2.7-2.7c0.1-4.9,0-9.9-0.7-14.8c-0.9-6.4-3.7-11.7-9.2-15.4c-3.2-2.1-6.7-3.2-10.5-3.2c-2.2,0-4.4,0-6.6,0.6
			c-8.1,2-12.9,7.3-15.3,15c-1.1,3.6-1.5,7.4-1.5,11.2c0,20.7,0,41.4,0,62.1c0,0.4,0,0.8,0,1.2c0,1.8,0,1.8-1.8,1.8
			c-3.3,0-6.5,0-9.8,0c-2,0-2,0.3-2-2c0-7.3,0-14.7,0-22C172.9,263.6,172.9,259.6,172.9,255.7z"/>
		<path class="st0" d="M136.9,238.9c1.6,0.7,2.9,1.3,4.1,1.9c6.8,3.5,10.5,9.1,11.5,16.7c0.5,3.7,0.8,7.4,0.8,11.1
			c0,7.1,0,14.1,0,21.2c0,1.7,0,1.8-1.8,1.8c-3.5,0-6.9,0-10.4,0c-1.6,0-1.6,0-1.6-1.7c0-7.2,0-14.4,0-21.6c0-3.2-0.4-6.5-1.1-9.6
			c-1.4-5.8-5.2-9.2-10.7-10.9c-2.3-0.7-4.6-0.9-7-1c-4.7-0.3-9.4-0.1-14-0.2c-0.9,0-1.4-0.1-1.4-1.2c0.1-3,0.1-6.1,0-9.2
			c0-1.1,0.5-1.2,1.3-1.2c2.2,0,4.5,0.1,6.7,0c3.6-0.2,7.2-0.2,10.7-1.2c3.1-0.9,5.9-2.3,8.4-4.4c3.4-3.1,4.9-7.1,5.1-11.6
			c0.2-5.3-1.4-10-5.2-13.8c-3.3-3.2-7.1-4.8-11.7-4.8c-2.6,0-5.1,0.1-7.6,1c-6.5,2.4-10.1,7.3-11.6,13.8c-0.9,3.8-1.2,7.7-1.2,11.7
			c0,21.2,0,42.4,0,63.5c0,2.8,0.3,2.5-2.5,2.5c-3.2,0-6.4,0-9.6,0c-1.6,0-1.6,0-1.7-1.7c0-0.4,0-0.8,0-1.2c0-22.1,0-44.3,0-66.4
			c0-5.2,0.7-10.4,2.5-15.4c3.9-11,11.7-17.8,23.2-19.9c7.7-1.4,15.4-1.1,22.7,2.4c8.9,4.3,15,11,16.6,20.9
			c1.7,10.9-1.9,19.8-11,26.4C139.2,237.4,138.1,238,136.9,238.9z"/>
		<path class="st0" d="M296.2,278.5c1.1-3.7,2.1-7.4,3.2-11.1c5.5-19.1,11.1-38.2,16.7-57.3c1.9-6.4,3.7-12.7,5.5-19.1
			c0.5-1.6,0.5-1.6,2.2-1.6c3.7,0,7.3,0,11,0c1.6,0,1.6,0.1,1.2,1.6c-3.1,10.4-6.2,20.9-9.3,31.3c-4.2,14.1-8.3,28.2-12.5,42.3
			c-1.7,5.8-3.5,11.7-5.3,17.5c-0.8,2.7-2.1,5.1-4.2,7.1c-2.3,2.2-4.9,3.2-8,3.3c-3.2,0.1-6.2-0.3-8.8-2.4c-2.6-2-4.2-4.8-5.3-7.8
			c-1.6-4.8-3-9.5-4.5-14.3c-3.5-11.5-7.1-23-10.6-34.6c-4.4-14.2-8.7-28.5-13.1-42.7c-0.1-0.3-0.1-0.6-0.2-1.1
			c0.5-0.3,1.1-0.2,1.6-0.2c3.7,0,7.5,0,11.2,0c1,0,1.4,0.3,1.7,1.3c4.3,14.3,8.7,28.5,13.1,42.7c3.7,11.9,7.3,23.8,11,35.7
			c1,3.1,2,6.3,2.9,9.5C295.9,278.5,296.1,278.5,296.2,278.5z"/>
		<path class="st0" d="M383.2,245.2c-7.5,0-15.1,0-22.6,0c-2,0-2,0-1.8,2.1c0.9,7.5,4,14,8.8,19.8c5.1,6.1,11.8,9.6,19.4,11.4
			c5.4,1.3,10.9,1.3,16.4,1.4c1,0,2,0,3,0c0.9,0,1.4,0.2,1.4,1.2c0,3.1,0,6.2,0,9.4c0,0.9-0.4,1.1-1.2,1.1c-5,0-10.1,0.2-15.1-0.1
			c-11.1-0.7-21.3-3.8-29.9-11.2c-10.1-8.7-16.4-19.5-18-32.9c-1.1-9.6-0.1-18.9,3.8-27.8c2.2-5.1,5.4-9.7,9.3-13.8
			c5-5.3,10.8-9.5,17.5-12.3c4.9-2.1,10-3.3,15.3-3.8c5.6-0.5,11.3-0.1,16.9-0.3c1.1,0,1.4,0.4,1.4,1.4c0,3,0,6,0,9
			c0,1.4,0,1.4-1.4,1.5c-3.9,0.1-7.7,0.1-11.6,0.4c-9.4,0.8-18,3.7-25,10.3c-5.7,5.4-9.5,12-10.8,19.8c-0.3,1.8-0.2,1.9,1.7,1.9
			c14.7,0,29.5,0,44.2,0c0.5,0,1,0,1.4,0c1.5,0,1.5,0,1.5,1.6c0,2.8,0,5.6,0,8.4c0,1.6,0,1.6-1.7,1.6
			C398.4,245.2,390.8,245.2,383.2,245.2z"/>
		<path class="st6" d="M424.7,227c0-11.8,0-23.6,0-35.4c0-2.5-0.1-2.2,2.2-2.2c3.3,0,6.7,0,10,0c1,0,1.5,0.3,1.4,1.4
			c0,0.5,0,0.9,0,1.4c0,21.1,0,42.2,0,63.3c0,4.7,0.7,9.3,2.7,13.6c2.2,4.9,5.7,8.3,11.1,9.5c2.9,0.6,5.7,1,8.6,1
			c5.2,0.1,10.3,0.1,15.5,0.1c1.6,0,1.6,0,1.6,1.6c0,2.9,0,5.8,0,8.8c0,1.1-0.3,1.4-1.4,1.4c-7.3,0-14.5,0.2-21.8-0.1
			c-6-0.2-12-1.4-17.3-4.5c-4.6-2.7-7.7-6.6-9.7-11.4c-2-4.9-2.9-10-2.9-15.3C424.7,249.1,424.7,238.1,424.7,227z"/>
		<path class="st7" d="M620.8,206c-0.1-0.5-0.1-0.9,0.1-1.4c0.4,0.5,0.6,0.9,0.6,1.5C621.3,206,621,206,620.8,206z"/>
		<path class="st8" d="M357,48.8c-0.2,0-0.4-0.2-0.2-0.3C357,48.3,357.1,48.5,357,48.8C357.1,48.7,357,48.8,357,48.8z"/>
		<path class="st0" d="M826.9,230.9c-1.6-9.2-5.3-17.4-11.3-24.6c-6.5-7.7-14.3-13.4-23.9-16.5c-7.5-2.4-15.1-2.9-22.9-2.2
			c-6.8,0.6-13.2,2.5-19.1,5.8c-5.5,3-10.2,6.8-14.4,11.4c-4.6,5-8.2,10.6-10.5,17c-2.6,7.4-3.6,14.9-3,22.7
			c0.6,7.7,2.5,14.9,6.3,21.6c4.7,8.3,11.2,14.9,19.3,20c6.2,3.9,13,6.1,20.2,7.1c0.7,0,1.3,0,2,0c3.4,0,6.8,0,10.3,0
			c0.7,0,1.3,0,2,0c2.5-0.4,4.9-0.8,7.3-1.5c10.3-2.9,18.7-8.7,25.7-16.7c8.7-9.8,12.8-21.4,12.9-34.4
			C827.7,237.4,827.4,234.1,826.9,230.9z M813.2,240.5c0.2,10.2-3.2,19.1-9.8,26.8c-5.4,6.2-11.8,10.9-19.9,12.6
			c-12.8,2.8-24.2,0.1-33.9-8.9c-6.6-6-11.1-13.3-12.8-22.1c-1.7-9.4-1.1-18.7,3.4-27.3c5.5-10.5,13.8-17.9,25.6-20.7
			c12.1-2.8,23.3-0.5,32.9,7.7c7.8,6.7,12.8,15.2,14.1,25.5c0.1,1,0.3,2,0.3,3C813.3,238.3,813.2,239.4,813.2,240.5z"/>
		<path class="st6" d="M585.4,234.3c-1.1-10.6-5-19.9-11.8-28c-6.4-7.6-14.1-13.2-23.6-16.4c-7.6-2.5-15.3-3.1-23.3-2.3
			c-6,0.6-11.7,2.1-17.1,4.8c-9.6,4.8-17.1,11.9-22.7,20.9c-4.2,6.8-6.4,14.2-7,22c-0.4,4.3-0.3,8.5,0.3,12.8
			c0.8,6,2.6,11.6,5.4,16.9c2.9,5.5,6.7,10.2,11.1,14.4c3.9,3.7,8.2,6.7,13,9c5.1,2.5,10.5,4,16.1,4.7c0.7,0,1.3,0,2,0
			c3.3,0,6.6,0,9.9,0c0.7,0,1.3,0,2,0c5.5-0.8,10.9-2.2,15.9-4.7c6-3,11.2-7,15.8-11.9c4.5-4.8,8.2-10.1,10.6-16.2
			C585.5,252,586.4,243.3,585.4,234.3z M559.4,269.5c-4.7,4.7-10,8.4-16.5,10c-13.2,3.4-25.1,0.8-35.3-8.4
			c-6.3-5.8-10.8-12.7-12.6-21.1c-2.6-12.7-0.7-24.5,7.5-35c6.1-7.8,13.9-12.8,23.7-14.6c2.2-0.4,4.4-0.6,5.8-0.5
			c10.6,0,19,3.3,26.1,10c7,6.5,11.4,14.4,12.8,23.9C572.9,247.5,569.3,259.5,559.4,269.5z"/>
		<path class="st0" d="M943.6,234.3c-1.1-10.6-5-20-11.9-28.2c-6.4-7.6-14.3-13.3-23.8-16.4c-7.5-2.4-15.1-2.9-22.9-2.3
			c-4.1,0.4-8.2,1.2-12.1,2.6c-8.8,3.1-16.2,8.5-22.3,15.5c-7.8,8.9-12,19.3-12.7,31.2c-0.6,10.4,1.3,20.2,6.4,29.3
			c4.6,8.1,10.9,14.6,18.7,19.7c6.4,4.1,13.4,6.4,20.9,7.4c0.7,0,1.3,0,2,0c3.3,0,6.6,0,9.9,0c0.7,0,1.3,0,2,0
			c5.5-0.8,10.9-2.2,15.9-4.7c6.1-3,11.3-7.1,16-12c4.5-4.8,8-10,10.5-16.1C943.7,252,944.5,243.3,943.6,234.3z M917.8,269.3
			c-4.8,4.9-10.3,8.7-17,10.4c-13.1,3.2-24.8,0.7-34.9-8.5c-6.3-5.8-10.7-12.7-12.6-21.1c-0.7-3.2-1.2-6.4-1-8.7
			c-0.1-10.7,2.8-19.5,9.1-27c6-7.3,13.6-12.3,23-13.8c12-1.9,22.8,0.9,31.9,9.4c6.9,6.4,11.3,14.1,12.7,23.5
			C931.1,247.1,927.7,259.1,917.8,269.3z"/>
		<path class="st9" d="M546.5,259.4c-3.9,2.3-8,3.9-12.6,4.3c-12.4,1.1-23.2-6.1-27.4-15.3c-0.3-0.7-0.5-1.4-0.8-2.1
			c-0.2-0.5-0.1-0.8,0.3-1.1c0.5-0.3,0.9-0.2,1.3,0.2c0.3,0.4,0.6,0.7,0.9,1.1c6.4,7.9,14.9,10.4,24.7,9.7c7.2-0.5,13.5-3,18.5-8.2
			c2.7-2.8,5-5.7,5.6-9.7c0-0.3,0.2-0.7,0.4-0.9c0.3-0.4,0.7-0.6,1.3-0.4c0.4,0.2,0.6,0.6,0.5,1c-0.2,1.8-0.3,3.6-0.8,5.4
			c-0.8,2.4-1.7,4.7-3,6.9c-0.3,0.5-0.8,1-0.8,1.6c0.3,0.5-0.2,0.8-0.5,1.2c-0.7,0.8-1.4,1.6-2.2,2.3c-0.3,0.3-0.6,0.6-0.9,1
			c-0.9,1-1.9,1.9-3.1,2.6C547.4,259.2,547.1,259.6,546.5,259.4z"/>
		<path class="st10" d="M560,236.6c-2.2,0-4.3-1.4-4.8-3c-0.1-0.3-0.2-0.7,0.1-0.9c0.3-0.3,0.6,0,0.9,0.2c0.4,0.4,0.8,0.7,1.2,1
			c1.5,1,3.1,1.2,4.8,0.4c0.4-0.2,0.7-0.4,1.1-0.6c0.4-0.2,0.8-0.3,1.1,0.1s0.2,0.8-0.1,1.1C563,236.1,561.6,236.6,560,236.6z"/>
		<path class="st11" d="M501.6,244.5c0.2-0.5,0.5-0.6,0.8-0.5c1.8,0.1,3-0.8,3.4-2.5c0.1-0.5,0.3-0.9,0.9-0.8
			c0.6,0.2,0.6,0.6,0.5,1.1c-0.3,1.4-1.2,2.3-2.4,2.8C503.7,245.1,502.6,245.4,501.6,244.5z"/>
		<path class="st12" d="M556.5,253.2c2.5,1.8,3,4.1,1.5,7c-0.4,0.1-0.5-0.2-0.7-0.5c0.7-2.7-0.4-4.8-2.3-6.6
			c0.1-0.3,0.3-0.5,0.7-0.3c0.1,0,0.2,0,0.2,0.1C556.1,253,556.3,253.1,556.5,253.2z"/>
		<path class="st13" d="M546.5,259.4c0.4-0.2,0.5-0.7,0.9-0.8c0.8,1.4,2.2,2.2,3.3,3.4c0,0.4-0.2,0.5-0.5,0.6
			C548.6,262,547.5,260.8,546.5,259.4z"/>
		<path class="st14" d="M555.7,262.3c-1.6,1-3.3,1.1-5.1,0.4c0.3-0.3,0.6-0.6,1-0.8c1.1-0.3,2.3-0.3,3.5-0.3
			C555.4,261.7,555.6,262,555.7,262.3z"/>
		<path class="st15" d="M555.7,262.3c-0.2-0.1-0.4-0.3-0.6-0.4c0-0.2,0.1-0.3,0.3-0.4c0.2-0.2,0.4-0.3,0.6-0.5
			c0.5-0.4,0.7-1.3,1.6-1.2c0.1,0.1,0.3,0.3,0.4,0.5C557.5,261.2,556.8,261.9,555.7,262.3z"/>
		<path class="st16" d="M555.8,252.8c-0.2,0.1-0.4,0.3-0.6,0.4c-0.7,0.5-1.2,0.1-1.6-0.3c0.3-0.3,0.6-0.6,0.9-0.9
			C554.9,252.1,555.4,252.3,555.8,252.8z"/>
		<path class="st17" d="M551.5,262.3c-0.2,0.3-0.5,0.3-0.8,0.3l-0.2,0l-0.2-0.1c0.2-0.1,0.3-0.3,0.5-0.4
			C551,262,551.3,262,551.5,262.3z"/>
		<path class="st16" d="M556.5,253.2c-0.2-0.1-0.3-0.2-0.5-0.3C556.2,252.9,556.4,253,556.5,253.2z"/>
		<path class="st18" d="M551.5,262.3c-0.2,0-0.5-0.1-0.7-0.1c-0.9-0.6-2-1.1-2.7-2c-0.4-0.5-0.8-0.9-0.6-1.6
			c1.2-0.6,2.2-1.7,3.2-2.5c0.9-0.5,1.2,0.5,1.8,0.6c-0.4-0.4-1.2-0.5-1.1-1.4c0.7-0.8,1.4-1.6,2.1-2.5c0.6-0.1,1.1,0.2,1.6,0.3
			c2.9,2,3.4,3.3,2.4,6.6c-0.5,0.6-1,1.3-1.6,1.7c-0.2,0.1-0.3,0.3-0.5,0.3c-0.1,0-0.2,0-0.3,0.1C554,262.4,552.7,262.3,551.5,262.3
			z"/>
		<path class="st19" d="M551.5,255.3c0.7,0.9,2.1,1.3,2,2.9c-1.1-0.8-1.6-1.9-2.8-2.2C550.8,255.7,551.1,255.4,551.5,255.3z"/>
		<path class="st14" d="M555.5,261.8c0.2-0.1,0.3-0.2,0.5-0.3C555.8,261.5,555.7,261.7,555.5,261.8z"/>
	</g>
	<path class="st9" d="M546.5,259.4c0,0,1.9,4.4,7.8,3.5c0,0,3.7-0.3,4.5-5.5c0,0,0-4-4.4-5.4l-0.9,0.9c0,0,8.8,2.4,2,9
		c0,0-5.5,2.9-8-3.2L546.5,259.4z"/>
	<path class="st0" d="M348.9,89.9c0,0,6.5,5.6,7.2,6.1s-0.3,0.6-0.3,0.6S350.4,91.9,348.9,89.9z"/>
	<polygon class="st6" points="609.4,49 610.9,47.5 610,49.4 	"/>
</g>
</svg>
